{"title":"Snapper Hero Snapchat Session 3 (03/15/2015) (Unedited)","uid":11758425,"size":38683091,"categoryP":"video","categoryS":"handheld","magnet":"?xt=urn:btih:7f91e359577152c65f6aac13bad3e2ad5be81c14&amp;dn=Snapper+Hero+Snapchat+Session+3+%2803%2F15%2F2015%29+%28Unedited%29&amp;tr=udp%3A%2F%2Ftracker.openbittorrent.com%3A80&amp;tr=udp%3A%2F%2Fopen.demonii.com%3A1337&amp;tr=udp%3A%2F%2Ftracker.coppersurfer.tk%3A6969&amp;tr=udp%3A%2F%2Fexodus.desync.com%3A6969","seeders":0,"leechers":1,"uploader":"geiszla","files":30,"time":1426519312,"description":"Episode 3 from Snapper Hero (03/12/2015)\n\nTech Specs:\nGeneral\nComplete name                  : C:[...]snapperhero-16-03-2015-16_50_27.mov\nFormat                         : MPEG-4\nFormat profile                 : Base Media / Version 2\nCodec ID                       : mp42\nFile size                      : 713 KiB\nDuration                       : 3s 567ms\nOverall bit rate               : 1 638 Kbps\nEncoded date                   : UTC 2015-03-15 20:00:18\nTagged date                    : UTC 2015-03-15 20:00:18\n\nVideo\nID                             : 2\nFormat                         : AVC\nFormat/Info                    : Advanced Video Codec\nFormat profile                 : &lt;a class=&quot;__cf_email__&quot; href=&quot;/cdn-cgi/l/email-protection&quot; data-cfemail=&quot;b7ffded0dff7fb849987&quot;&gt;[email&amp;#160;protected]&lt;/a&gt;&lt;script cf-hash='f9e31' type=&quot;text/javascript&quot;&gt;\n/* &lt;![CDATA[ */!function(){try{var t=&quot;currentScript&quot;in document?document.currentScript:function(){for(var t=document.getElementsByTagName(&quot;script&quot;),e=t.length;e--;)if(t[e].getAttribute(&quot;cf-hash&quot;))return t[e]}();if(t&amp;&amp;t.previousSibling){var e,r,n,i,c=t.previousSibling,a=c.getAttribute(&quot;data-cfemail&quot;);if(a){for(e=&quot;&quot;,r=parseInt(a.substr(0,2),16),n=2;a.length-n;n+=2)i=parseInt(a.substr(n,2),16)^r,e+=String.fromCharCode(i);e=document.createTextNode(e),c.parentNode.replaceChild(e,c)}}}catch(u){}}();/* ]]&gt; */&lt;/script&gt;\nFormat settings, CABAC         : Yes\nFormat settings, ReFrames      : 2 frames\nCodec ID                       : avc1\nCodec ID/Info                  : Advanced Video Coding\nDuration                       : 3s 567ms\nBit rate                       : 1 373 Kbps\nWidth                          : 376 pixels\nHeight                         : 668 pixels\nDisplay aspect ratio           : 0.563\nFrame rate mode                : Constant\nFrame rate                     : 30.000 fps\nColor space                    : YUV\nChroma subsampling             : 4:2:0\nBit depth                      : 8 bits\nScan type                      : Progressive\nBits/(Pixel*Frame)             : 0.182\nStream size                    : 598 KiB (84%)\nTitle                          : Core Media Video\nEncoded date                   : UTC 2015-03-15 20:00:18\nTagged date                    : UTC 2015-03-15 20:00:18\nColor primaries                : BT.709\nTransfer characteristics       : BT.709\nMatrix coefficients            : BT.601\nColor range                    : Limited\n\nAudio\nID                             : 1\nFormat                         : AAC\nFormat/Info                    : Advanced Audio Codec\nFormat profile                 : LC\nCodec ID                       : 40\nDuration                       : 3s 565ms\nSource duration                : 3s 622ms\nBit rate mode                  : Constant\nBit rate                       : 256 Kbps\nChannel(s)                     : 2 channels\nChannel positions              : Front: L R\nSampling rate                  : 44.1 KHz\nCompression mode               : Lossy\nStream size                    : 111 KiB (16%)\nSource stream size             : 112 KiB (16%)\nTitle                          : Core Media Audio\nEncoded date                   : UTC 2015-03-15 20:00:18\nTagged date                    : UTC 2015-03-15 20:00:18\n\nNote: I just uploaded this torrent for those who are not able to watch it on snapchat. Please do it, if you can!","torrent":{"xt":"urn:btih:7f91e359577152c65f6aac13bad3e2ad5be81c14","amp;dn":"Snapper+Hero+Snapchat+Session+3+%2803%2F15%2F2015%29+%28Unedited%29","amp;tr":["udp%3A%2F%2Ftracker.openbittorrent.com%3A80","udp%3A%2F%2Fopen.demonii.com%3A1337","udp%3A%2F%2Ftracker.coppersurfer.tk%3A6969","udp%3A%2F%2Fexodus.desync.com%3A6969"],"infoHash":"7f91e359577152c65f6aac13bad3e2ad5be81c14","infoHashBuffer":{"type":"Buffer","data":[127,145,227,89,87,113,82,198,95,106,172,19,186,211,226,173,91,232,28,20]},"announce":[],"urlList":[]}}